<svg width="107" height="107" viewBox="0 0 107 107" fill="none" xmlns="http://www.w3.org/2000/svg">
<path d="M23.504 88.8H11.408C11.024 88.8 10.6827 88.672 10.384 88.416C10.128 88.1173 10 87.84 10 87.584C10 87.328 10.0213 87.136 10.064 87.008L32.1206 19.612C32.5046 18.204 33.4646 17.5 35.0006 17.5H52.7925C54.3285 17.5 55.2885 18.204 55.6725 19.612L69.6245 60.508C69.6672 60.636 69.6885 60.828 69.6885 61.084C69.6885 61.34 69.5392 61.6173 69.2405 61.916C68.9845 62.172 68.6645 62.3 68.2805 62.3H56.1845C54.8191 62.3 53.8591 61.5747 53.3045 60.124L51.7045 55.644H36.0886L26.384 86.624C25.8293 88.0747 24.8693 88.8 23.504 88.8ZM48.4405 43.164L43.8965 29.852L39.3525 43.164H48.4405Z" fill="white"/>
<path d="M77.256 88.7H71.208C71.016 88.7 70.8454 88.636 70.696 88.508C70.568 88.3587 70.504 88.22 70.504 88.092C70.504 87.964 70.5147 87.868 70.536 87.804L77.512 67.356C77.704 66.652 78.184 66.3 78.952 66.3H87.848C88.616 66.3 89.096 66.652 89.288 67.356L96.264 87.804C96.2854 87.868 96.296 87.964 96.296 88.092C96.296 88.22 96.2214 88.3587 96.072 88.508C95.944 88.636 95.784 88.7 95.592 88.7H89.544C88.8614 88.7 88.3814 88.3374 88.104 87.612L87.304 85.372H79.496L78.696 87.612C78.4187 88.3374 77.9387 88.7 77.256 88.7ZM85.672 79.132L83.4 72.476L81.128 79.132H85.672Z" fill="#E03434"/>
<path d="M63.824 82.46H76.592C76.8267 82.46 77.0294 82.5454 77.2 82.716C77.3707 82.8867 77.456 83.0894 77.456 83.324V87.836C77.456 88.0707 77.3707 88.2734 77.2 88.444C77.0294 88.6147 76.8267 88.7 76.592 88.7H56.368C56.1334 88.7 55.9307 88.6147 55.76 88.444C55.5894 88.2734 55.504 88.0707 55.504 87.836V67.164C55.504 66.9294 55.5894 66.7267 55.76 66.556C55.9307 66.3854 56.1334 66.3 56.368 66.3H76.272C76.5067 66.3 76.7094 66.3854 76.88 66.556C77.0507 66.7267 77.136 66.9294 77.136 67.164V71.676C77.136 71.9107 77.0507 72.1134 76.88 72.284C76.7094 72.4547 76.5067 72.54 76.272 72.54H63.824V74.556H74.512C74.7467 74.556 74.9494 74.6414 75.12 74.812C75.2907 74.9827 75.376 75.1854 75.376 75.42V79.58C75.376 79.8147 75.2907 80.0174 75.12 80.188C74.9494 80.3587 74.7467 80.444 74.512 80.444H63.824V82.46Z" fill="white"/>
<path d="M59.896 87.708C59.9387 87.7934 59.96 87.9107 59.96 88.06C59.96 88.2094 59.8854 88.3587 59.736 88.508C59.608 88.636 59.448 88.7 59.256 88.7H51.992C51.352 88.7 50.904 88.4334 50.648 87.9L47.832 81.564H45.144V87.836C45.144 88.0707 45.0587 88.2734 44.888 88.444C44.7174 88.6147 44.5147 88.7 44.28 88.7H37.368C37.1334 88.7 36.9307 88.6147 36.76 88.444C36.5894 88.2734 36.504 88.0707 36.504 87.836V67.164C36.504 66.9294 36.5894 66.7267 36.76 66.556C36.9307 66.3854 37.1334 66.3 37.368 66.3H49.816C52.7387 66.3 55.0534 66.9934 56.76 68.38C57.8572 69.2715 58.7002 69.8942 59.092 71.2C59.2801 71.8269 59.2304 74.4776 59.256 75.2C59.26 75.3135 59.256 75.5282 59.256 75.644C59.256 78.5454 58.2 79.0467 55.96 80.348L59.896 87.708ZM45.144 72.252V75.644H49.144C49.6134 75.644 49.976 75.4947 50.232 75.196C50.488 74.876 50.616 74.4814 50.616 74.012C50.616 73.5427 50.488 73.1374 50.232 72.796C49.9974 72.4334 49.6347 72.252 49.144 72.252H45.144Z" fill="#3A56D2"/>
<path d="M59.092 71.2C59.2801 71.8269 59.2304 74.4776 59.256 75.2C62.592 75.2 62.592 75.2 62.592 73.2C62.592 71.2 62.592 71.2 59.092 71.2Z" fill="#3A56D2"/>
<path d="M59.4529 85.8506C58.9972 85.3807 57.8206 83.005 57.4653 82.3755C54.504 83.9118 54.504 83.9118 55.4251 85.6871C56.3461 87.4624 56.3461 87.4624 59.4529 85.8506Z" fill="white"/>
<path d="M78.504 71.3C78.2353 70.6731 78.3063 68.0224 78.2698 67.3C73.504 67.3 73.504 67.3 73.504 69.3C73.504 71.3 73.504 71.3 78.504 71.3Z" fill="#E03434"/>
</svg>
