<svg width="92" height="92" viewBox="0 0 92 92" fill="none" xmlns="http://www.w3.org/2000/svg">
<rect width="91.3" height="91.3" rx="18" fill="#E03434"/>
<path d="M29.3098 81.3H17.2138C16.8298 81.3 16.4885 81.172 16.1898 80.916C15.9338 80.6173 15.8058 80.34 15.8058 80.084C15.8058 79.828 15.8271 79.636 15.8698 79.508L37.9264 12.112C38.3104 10.704 39.2704 10 40.8064 10H58.5982C60.1342 10 61.0942 10.704 61.4782 12.112L75.4303 53.008C75.4729 53.136 75.4943 53.328 75.4943 53.584C75.4943 53.84 75.3449 54.1173 75.0463 54.416C74.7903 54.672 74.4702 54.8 74.0862 54.8H61.9902C60.6249 54.8 59.6649 54.0747 59.1102 52.624L57.5102 48.144H41.8944L32.1898 79.124C31.6351 80.5747 30.6751 81.3 29.3098 81.3ZM54.2463 35.664L49.7023 22.352L45.1583 35.664H54.2463Z" fill="#3A56D2" stroke="white" stroke-width="2" stroke-linejoin="round"/>
</svg>
